<svg width="70" height="32" viewBox="0 0 70 32" fill="none" xmlns="http://www.w3.org/2000/svg">
<path d="M4.38 20.72H6.02C7.14 20.72 7.7 20.14 7.7 18.98V12.16C7.7 11 7.14 10.42 6.02 10.42H4.38C3.27333 10.42 2.72 11 2.72 12.16V18.98C2.72 20.14 3.27333 20.72 4.38 20.72ZM6.2 22H4.2C3.29333 22 2.57333 21.74 2.04 21.22C1.52 20.7 1.26 19.9733 1.26 19.04V12.1C1.26 11.18 1.52 10.46 2.04 9.94C2.57333 9.40667 3.29333 9.14 4.2 9.14H6.2C7.10667 9.14 7.82 9.40667 8.34 9.94C8.87333 10.46 9.14 11.18 9.14 12.1V19.04C9.14 19.9733 8.87333 20.7 8.34 21.22C7.82 21.74 7.10667 22 6.2 22ZM11.0506 11.9V11.1C11.0506 10.9 11.1306 10.7533 11.2906 10.66L13.6106 9.32C13.824 9.2 13.9973 9.14 14.1306 9.14H14.9706C15.1573 9.14 15.2506 9.23333 15.2506 9.42V21.72C15.2506 21.9067 15.1573 22 14.9706 22H14.0706C13.884 22 13.7906 21.9067 13.7906 21.72V10.7L11.4106 12.06C11.1706 12.1933 11.0506 12.14 11.0506 11.9Z" fill="white"/>
<path opacity="0.5" d="M53.38 20.72H55.02C56.14 20.72 56.7 20.14 56.7 18.98V12.16C56.7 11 56.14 10.42 55.02 10.42H53.38C52.2733 10.42 51.72 11 51.72 12.16V18.98C51.72 20.14 52.2733 20.72 53.38 20.72ZM55.2 22H53.2C52.2933 22 51.5733 21.74 51.04 21.22C50.52 20.7 50.26 19.9733 50.26 19.04V12.1C50.26 11.18 50.52 10.46 51.04 9.94C51.5733 9.40667 52.2933 9.14 53.2 9.14H55.2C56.1067 9.14 56.82 9.40667 57.34 9.94C57.8733 10.46 58.14 11.18 58.14 12.1V19.04C58.14 19.9733 57.8733 20.7 57.34 21.22C56.82 21.74 56.1067 22 55.2 22ZM63.8506 14.92H65.0106C66.144 14.92 66.7106 14.3533 66.7106 13.22V12.08C66.7106 10.9467 66.144 10.38 65.0106 10.38H63.6306C62.5106 10.38 61.9506 10.9467 61.9506 12.08V12.72C61.9506 12.92 61.8573 13.02 61.6706 13.02H60.7706C60.584 13.02 60.4906 12.92 60.4906 12.72V12.06C60.4906 11.14 60.7506 10.4267 61.2706 9.92C61.804 9.4 62.5306 9.14 63.4506 9.14H65.1906C66.1106 9.14 66.8306 9.4 67.3506 9.92C67.884 10.4267 68.1506 11.14 68.1506 12.06V13.24C68.1506 14.4267 67.604 15.1933 66.5106 15.54C67.604 15.82 68.1506 16.58 68.1506 17.82V19.08C68.1506 20 67.884 20.72 67.3506 21.24C66.8306 21.7467 66.1106 22 65.1906 22H63.4506C62.5306 22 61.804 21.7467 61.2706 21.24C60.7506 20.72 60.4906 20 60.4906 19.08V18.28C60.4906 18.08 60.584 17.98 60.7706 17.98H61.6706C61.8573 17.98 61.9506 18.08 61.9506 18.28V19.06C61.9506 20.1933 62.5106 20.76 63.6306 20.76H65.0106C66.144 20.76 66.7106 20.1933 66.7106 19.06V17.84C66.7106 16.7067 66.144 16.14 65.0106 16.14H63.8506C63.664 16.14 63.5706 16.0467 63.5706 15.86V15.2C63.5706 15.0133 63.664 14.92 63.8506 14.92Z" fill="white"/>
<line x1="40.5" y1="16.5" x2="25.5" y2="16.5" stroke="white" stroke-linecap="round"/>
</svg>
